<?xml version="1.0" encoding="UTF-8"?>
<svg version="1.1" xmlns="http://www.w3.org/2000/svg" width="190" height="69">
<path d="M0 0 C62.7 0 125.4 0 190 0 C190 22.77 190 45.54 190 69 C127.3 69 64.6 69 0 69 C0 46.23 0 23.46 0 0 Z " fill="#085B95" transform="translate(0,0)"/>
<path d="M0 0 C1.51400391 0.01740234 1.51400391 0.01740234 3.05859375 0.03515625 C4.07050781 0.04417969 5.08242187 0.05320312 6.125 0.0625 C7.29869141 0.07990234 7.29869141 0.07990234 8.49609375 0.09765625 C8.49609375 1.74765625 8.49609375 3.39765625 8.49609375 5.09765625 C10.89514234 6.29718055 12.82130048 6.83670081 15.49609375 7.09765625 C15.99109375 6.60265625 16.48609375 6.10765625 16.99609375 5.59765625 C17.49109375 5.10265625 17.98609375 4.60765625 18.49609375 4.09765625 C20.17032361 4.39064648 21.83787602 4.72455726 23.49609375 5.09765625 C24.48609375 4.43765625 25.47609375 3.77765625 26.49609375 3.09765625 C29.91626932 2.69807138 33.36902416 2.53412145 36.49609375 4.09765625 C36.82609375 3.10765625 37.15609375 2.11765625 37.49609375 1.09765625 C38.81609375 1.09765625 40.13609375 1.09765625 41.49609375 1.09765625 C41.49609375 4.06765625 41.49609375 7.03765625 41.49609375 10.09765625 C42.15609375 10.09765625 42.81609375 10.09765625 43.49609375 10.09765625 C43.49609375 7.12765625 43.49609375 4.15765625 43.49609375 1.09765625 C44.81609375 1.09765625 46.13609375 1.09765625 47.49609375 1.09765625 C47.57723481 2.86773339 47.6353488 4.63887723 47.68359375 6.41015625 C47.73580078 7.88935547 47.73580078 7.88935547 47.7890625 9.3984375 C47.49609375 12.09765625 47.49609375 12.09765625 46.1328125 13.93359375 C43.78990527 15.59990963 42.32135856 15.4339973 39.49609375 15.09765625 C36.68359375 14.09765625 36.68359375 14.09765625 34.49609375 13.09765625 C34.16609375 14.08765625 33.83609375 15.07765625 33.49609375 16.09765625 C30.02566672 18.41127427 28.57775202 18.60786353 24.49609375 18.09765625 C22.62109375 16.22265625 22.62109375 16.22265625 21.49609375 14.09765625 C21.49609375 13.43765625 21.49609375 12.77765625 21.49609375 12.09765625 C20.83609375 12.09765625 20.17609375 12.09765625 19.49609375 12.09765625 C19.35171875 13.23203125 19.20734375 14.36640625 19.05859375 15.53515625 C18.49609375 19.09765625 18.49609375 19.09765625 17.49609375 20.09765625 C15.49651011 20.13846408 13.49564121 20.14019981 11.49609375 20.09765625 C11.49609375 20.75765625 11.49609375 21.41765625 11.49609375 22.09765625 C13.14609375 22.09765625 14.79609375 22.09765625 16.49609375 22.09765625 C16.49609375 23.08765625 16.49609375 24.07765625 16.49609375 25.09765625 C17.15609375 25.09765625 17.81609375 25.09765625 18.49609375 25.09765625 C18.49609375 23.77765625 18.49609375 22.45765625 18.49609375 21.09765625 C24.46650811 19.6440946 29.46728208 18.59045333 35.49609375 20.09765625 C36.15609375 20.75765625 36.81609375 21.41765625 37.49609375 22.09765625 C37.82609375 20.77765625 38.15609375 19.45765625 38.49609375 18.09765625 C40.80609375 18.09765625 43.11609375 18.09765625 45.49609375 18.09765625 C45.99109375 23.54265625 45.99109375 23.54265625 46.49609375 29.09765625 C48.47609375 24.80765625 50.45609375 20.51765625 52.49609375 16.09765625 C54.14609375 16.09765625 55.79609375 16.09765625 57.49609375 16.09765625 C59.53602889 21.0274995 60.90262343 24.6772605 60.49609375 30.09765625 C57.85609375 30.09765625 55.21609375 30.09765625 52.49609375 30.09765625 C52.49609375 31.08765625 52.49609375 32.07765625 52.49609375 33.09765625 C50.93492556 33.43717244 49.37208037 33.76898169 47.80859375 34.09765625 C46.93847656 34.28328125 46.06835938 34.46890625 45.171875 34.66015625 C42.548571 35.08907603 40.14837705 35.16803193 37.49609375 35.09765625 C34.59931546 34.84275505 34.59931546 34.84275505 32.80859375 36.09765625 C29.33791267 37.59849131 26.25870079 37.22307648 22.49609375 37.09765625 C22.49609375 37.75765625 22.49609375 38.41765625 22.49609375 39.09765625 C21.69171875 39.07703125 20.88734375 39.05640625 20.05859375 39.03515625 C17.5625449 38.80132004 17.5625449 38.80132004 16.49609375 40.09765625 C14.43880205 40.41689117 12.37995854 40.60926977 10.30859375 40.81640625 C8.47934045 40.91763668 8.47934045 40.91763668 7.49609375 42.09765625 C5.51609375 42.09765625 3.53609375 42.09765625 1.49609375 42.09765625 C1.49609375 36.15765625 1.49609375 30.21765625 1.49609375 24.09765625 C0.17609375 24.09765625 -1.14390625 24.09765625 -2.50390625 24.09765625 C-2.17390625 22.44765625 -1.84390625 20.79765625 -1.50390625 19.09765625 C-2.82390625 19.09765625 -4.14390625 19.09765625 -5.50390625 19.09765625 C-5.50390625 20.74765625 -5.50390625 22.39765625 -5.50390625 24.09765625 C-7.15390625 24.42765625 -8.80390625 24.75765625 -10.50390625 25.09765625 C-10.50390625 20.14765625 -10.50390625 15.19765625 -10.50390625 10.09765625 C-7.62179323 9.13695191 -5.80540581 8.99183742 -2.81640625 9.03515625 C-1.60404297 9.04869141 -1.60404297 9.04869141 -0.3671875 9.0625 C0.55513672 9.07990234 0.55513672 9.07990234 1.49609375 9.09765625 C1.82609375 8.10765625 2.15609375 7.11765625 2.49609375 6.09765625 C0.84609375 6.42765625 -0.80390625 6.75765625 -2.50390625 7.09765625 C-2.88523924 5.10625065 -3.21716207 3.10486548 -3.50390625 1.09765625 C-2.50390625 0.09765625 -2.50390625 0.09765625 0 0 Z " fill="#4D85B0" transform="translate(93.50390625,24.90234375)"/>
<path d="M0 0 C0.495 5.445 0.495 5.445 1 11 C2.155 10.67 3.31 10.34 4.5 10 C8.77500587 8.91598066 12.60361453 8.84298623 17 9 C17.042721 10.66611905 17.04063832 12.33382885 17 14 C16.67 14.33 16.34 14.66 16 15 C16.08963062 16.69141656 16.24577676 18.37959602 16.4375 20.0625 C16.59025391 21.44115234 16.59025391 21.44115234 16.74609375 22.84765625 C16.82988281 23.55792969 16.91367188 24.26820312 17 25 C14.01787087 26.49106457 11.28390342 26.11941467 8 26 C7 25 7 25 6.90234375 22.93359375 C6.91394531 22.10988281 6.92554688 21.28617188 6.9375 20.4375 C6.94652344 19.61121094 6.95554687 18.78492187 6.96484375 17.93359375 C6.97644531 17.29550781 6.98804688 16.65742188 7 16 C6.01 16 5.02 16 4 16 C4 26.23 4 36.46 4 47 C2.02 47 0.04 47 -2 47 C-2 45.35 -2 43.7 -2 42 C-2.99 42 -3.98 42 -5 42 C-5 43.32 -5 44.64 -5 46 C-5.99 46 -6.98 46 -8 46 C-8 41.05 -8 36.1 -8 31 C-3 32 -3 32 -2 33 C-2 32.01 -2 31.02 -2 30 C-2.66 30 -3.32 30 -4 30 C-4.495 29.01 -4.495 29.01 -5 28 C-6.65 28 -8.3 28 -10 28 C-10.33 23.38 -10.66 18.76 -11 14 C-10.34 13.67 -9.68 13.34 -9 13 C-8.31527335 11.11235097 -8.31527335 11.11235097 -7.875 8.9375 C-7.70742187 8.20402344 -7.53984375 7.47054688 -7.3671875 6.71484375 C-7.18542969 5.86599609 -7.18542969 5.86599609 -7 5 C-8.32 5 -9.64 5 -11 5 C-11.185625 6.36125 -11.185625 6.36125 -11.375 7.75 C-11.92614496 10.61595378 -12.72159484 12.44318969 -14 15 C-13.505 15.99 -13.505 15.99 -13 17 C-12.92934383 19.04055005 -12.91578024 21.08334257 -12.9375 23.125 C-12.94652344 24.22070312 -12.95554688 25.31640625 -12.96484375 26.4453125 C-12.97644531 27.28835937 -12.98804688 28.13140625 -13 29 C-14.32 29 -15.64 29 -17 29 C-17 28.34 -17 27.68 -17 27 C-17.99 27 -18.98 27 -20 27 C-20 27.99 -20 28.98 -20 30 C-20.99 30 -21.98 30 -23 30 C-23 25.38 -23 20.76 -23 16 C-26.09375 16.2475 -26.09375 16.2475 -29.25 16.5 C-32.8606038 16.7888483 -36.37552075 17 -40 17 C-40.33 17.33 -40.66 17.66 -41 18 C-42.99958364 18.04080783 -45.00045254 18.04254356 -47 18 C-47.33 16.68 -47.66 15.36 -48 14 C-48.66 14 -49.32 14 -50 14 C-50.33 15.98 -50.66 17.96 -51 20 C-51.7425 19.979375 -52.485 19.95875 -53.25 19.9375 C-55.70462279 19.99328688 -57.66109261 20.3069904 -60 21 C-61.80230168 17.17010894 -62.19622241 14.21878192 -62 10 C-61.01 10 -60.02 10 -59 10 C-59 10.66 -59 11.32 -59 12 C-58.34 12 -57.68 12 -57 12 C-57 11.34 -57 10.68 -57 10 C-55.35 10 -53.7 10 -52 10 C-52 9.34 -52 8.68 -52 8 C-50.02 8 -48.04 8 -46 8 C-45.67 7.34 -45.34 6.68 -45 6 C-39.25 5.875 -39.25 5.875 -37 7 C-37 6.34 -37 5.68 -37 5 C-30.375 4.875 -30.375 4.875 -27 6 C-27 5.01 -27 4.02 -27 3 C-25.68 3 -24.36 3 -23 3 C-23 5.64 -23 8.28 -23 11 C-22.01 11 -21.02 11 -20 11 C-20 8.03 -20 5.06 -20 2 C-14.375 1.75 -14.375 1.75 -11 4 C-11 3.01 -11 2.02 -11 1 C-10.071875 0.7834375 -10.071875 0.7834375 -9.125 0.5625 C-3.98734177 -0.79746835 -3.98734177 -0.79746835 0 0 Z " fill="#588CB3" transform="translate(166,8)"/>
<path d="M0 0 C0 0.66 0 1.32 0 2 C0.804375 2.061875 1.60875 2.12375 2.4375 2.1875 C7.1635451 3.26536993 10.87513427 5.51591419 15 8 C14.67 9.32 14.34 10.64 14 12 C13.01 12 12.02 12 11 12 C11 12.66 11 13.32 11 14 C9.3767313 14.6708712 7.75132422 15.33657029 6.125 16 C5.22007813 16.37125 4.31515625 16.7425 3.3828125 17.125 C1 18 1 18 -1 18 C-0.505 18.45375 -0.01 18.9075 0.5 19.375 C2 21 2 21 2 23 C2.99 23 3.98 23 5 23 C5 23.66 5 24.32 5 25 C6.6396875 25.2165625 6.6396875 25.2165625 8.3125 25.4375 C12 26 12 26 15 27 C14.91796875 29.26953125 14.91796875 29.26953125 14 32 C11.73344713 33.49802633 9.76021561 34.59214103 7.3125 35.6875 C6.69955078 35.98205078 6.08660156 36.27660156 5.45507812 36.58007812 C-2.25423698 40.21809002 -8.0445988 41.93093213 -16.2890625 39.2578125 C-18.20824125 38.54574971 -20.10646828 37.77770053 -22 37 C-22 35.68 -22 34.36 -22 33 C-16.375 30 -16.375 30 -13 30 C-13 29.34 -13 28.68 -13 28 C-12.01 28 -11.02 28 -10 28 C-10 27.34 -10 26.68 -10 26 C-16.39129725 26.95995769 -20.63248279 28.25522055 -26 32 C-28.875 32.25 -28.875 32.25 -31 32 C-31 29.03 -31 26.06 -31 23 C-29.35 22.34 -27.7 21.68 -26 21 C-27.63412443 19.29159719 -28.86906094 18.06546953 -31 17 C-31 14.03 -31 11.06 -31 8 C-26.39146203 8.72008406 -22.32762591 10.31295939 -18 12 C-18 12.66 -18 13.32 -18 14 C-15.03 14 -12.06 14 -9 14 C-10.36833132 9.89500604 -12.28803049 9.13094546 -16 7 C-18.32392008 6.16803661 -20.59325807 5.57761806 -23 5 C-21.75894915 1.27684744 -20.78479516 1.00125431 -17.375 -0.75 C-10.92201226 -3.81539931 -6.39188087 -2.9054004 0 0 Z " fill="#EFF3F7" transform="translate(44,11)"/>
<path d="M0 0 C62.7 0 125.4 0 190 0 C190 1.32 190 2.64 190 4 C127.3 4 64.6 4 0 4 C0 2.68 0 1.36 0 0 Z " fill="#EDEDED" transform="translate(0,0)"/>
<path d="M0 0 C1.65 0 3.3 0 5 0 C7.03993514 4.92984325 8.40652968 8.57960425 8 14 C5.36 14 2.72 14 0 14 C0 14.99 0 15.98 0 17 C-1.56116819 17.33951619 -3.12401338 17.67132544 -4.6875 18 C-5.55761719 18.185625 -6.42773438 18.37125 -7.32421875 18.5625 C-9.94752275 18.99141978 -12.3477167 19.07037568 -15 19 C-17.8980264 18.76649595 -17.8980264 18.76649595 -19.8046875 19.953125 C-22.60235161 21.2872424 -25.04326847 21.49255805 -28.125 21.75 C-29.17945312 21.84796875 -30.23390625 21.9459375 -31.3203125 22.046875 C-34 22 -34 22 -36 20 C-36.33 20.99 -36.66 21.98 -37 23 C-38.65 23 -40.3 23 -42 23 C-42.02684679 20.35409986 -42.04676357 17.70846904 -42.0625 15.0625 C-42.07087891 14.30775391 -42.07925781 13.55300781 -42.08789062 12.77539062 C-42.09652441 10.85005687 -42.05224333 8.92464419 -42 7 C-41 6 -41 6 -38.4375 5.9375 C-37.2309375 5.9684375 -37.2309375 5.9684375 -36 6 C-36 6.99 -36 7.98 -36 9 C-35.34 9 -34.68 9 -34 9 C-34 7.68 -34 6.36 -34 5 C-28.02958564 3.54643835 -23.02881167 2.49279708 -17 4 C-16.34 4.66 -15.68 5.32 -15 6 C-14.67 4.68 -14.34 3.36 -14 2 C-11.69 2 -9.38 2 -7 2 C-6.505 7.445 -6.505 7.445 -6 13 C-4.02 8.71 -2.04 4.42 0 0 Z " fill="#6897BB" transform="translate(146,41)"/>
<path d="M0 0 C1.32 0 2.64 0 4 0 C3.67 2.64 3.34 5.28 3 8 C2.01 8.33 1.02 8.66 0 9 C0.24556641 9.82757812 0.24556641 9.82757812 0.49609375 10.671875 C1.05760414 13.26614007 1.09739008 15.59835411 1.0625 18.25 C1.05347656 19.14203125 1.04445313 20.0340625 1.03515625 20.953125 C1.02355469 21.62859375 1.01195312 22.3040625 1 23 C2.65 23 4.3 23 6 23 C6.33 21.68 6.66 20.36 7 19 C7 20.98 7 22.96 7 25 C7.99 24.67 8.98 24.34 10 24 C10 25.65 10 27.3 10 29 C7.69 28.01 5.38 27.02 3 26 C3 30.95 3 35.9 3 41 C3.99 41 4.98 41 6 41 C6 39.68 6 38.36 6 37 C6.99 37 7.98 37 9 37 C9 37.66 9 38.32 9 39 C8.34 39 7.68 39 7 39 C7 39.99 7 40.98 7 42 C4.59454362 43.20272819 3.05003047 43.10071472 0.375 43.0625 C-0.85089844 43.04896484 -0.85089844 43.04896484 -2.1015625 43.03515625 C-2.72804687 43.02355469 -3.35453125 43.01195312 -4 43 C-3.01 42.67 -2.02 42.34 -1 42 C-1.309375 40.80375 -1.61875 39.6075 -1.9375 38.375 C-2.80031573 34.93597561 -3.47370486 31.50863427 -4 28 C-5.65 28 -7.3 28 -9 28 C-9.19335938 28.59167969 -9.38671875 29.18335937 -9.5859375 29.79296875 C-10.94414719 33.9146645 -12.32050585 37.9950524 -14 42 C-14.99 41.505 -14.99 41.505 -16 41 C-16 37.37 -16 33.74 -16 30 C-18.31 30 -20.62 30 -23 30 C-23 31.98 -23 33.96 -23 36 C-23.66386719 35.33484375 -24.32773438 34.6696875 -25.01171875 33.984375 C-28.78105621 31.48133784 -31.51402329 31.73171477 -35.8125 32.25 C-36.85180664 32.34861328 -36.85180664 32.34861328 -37.91210938 32.44921875 C-39.61008519 32.61316124 -41.30543703 32.80389963 -43 33 C-43 34.32 -43 35.64 -43 37 C-43.66 37 -44.32 37 -45 37 C-45 36.01 -45 35.02 -45 34 C-46.65 34 -48.3 34 -50 34 C-50 33.34 -50 32.68 -50 32 C-48.02 31.67 -46.04 31.34 -44 31 C-43.01 27.535 -43.01 27.535 -42 24 C-41.34 24 -40.68 24 -40 24 C-39.5875 24.825 -39.175 25.65 -38.75 26.5 C-37.2136718 29.31271479 -37.2136718 29.31271479 -34.0625 29.5625 C-30.89235505 29.3142676 -30.89235505 29.3142676 -29.25 26.9375 C-27 25 -27 25 -24.6015625 25.02734375 C-22.80939572 25.25585785 -21.02179661 25.52437389 -19.2421875 25.8359375 C-18.50226563 25.89007813 -17.76234375 25.94421875 -17 26 C-14.41073669 23.41073669 -14.62601957 21.97294721 -14.375 18.375 C-14.30023438 17.37210938 -14.22546875 16.36921875 -14.1484375 15.3359375 C-14.09945312 14.56507812 -14.05046875 13.79421875 -14 13 C-15.32 13 -16.64 13 -18 13 C-18 15.97 -18 18.94 -18 22 C-18.66 22 -19.32 22 -20 22 C-20 19.03 -20 16.06 -20 13 C-21.32 13.33 -22.64 13.66 -24 14 C-24.33 14.66 -24.66 15.32 -25 16 C-26.01320313 15.96519531 -26.01320313 15.96519531 -27.046875 15.9296875 C-27.93890625 15.91164063 -28.8309375 15.89359375 -29.75 15.875 C-30.63171875 15.85179687 -31.5134375 15.82859375 -32.421875 15.8046875 C-35.1135858 16.00860498 -36.69904974 16.63448279 -39 18 C-39 17.34 -39 16.68 -39 16 C-42.81413002 17.1678266 -42.81413002 17.1678266 -45.3125 20.125 C-45.539375 20.74375 -45.76625 21.3625 -46 22 C-46.33 21.01 -46.66 20.02 -47 19 C-49.31 18.67 -51.62 18.34 -54 18 C-53.67 16.02 -53.34 14.04 -53 12 C-58.94 12.495 -58.94 12.495 -65 13 C-65 12.34 -65 11.68 -65 11 C-58.565 10.505 -58.565 10.505 -52 10 C-52 8.02 -52 6.04 -52 4 C-48.37 3.67 -44.74 3.34 -41 3 C-41 3.66 -41 4.32 -41 5 C-42.65 5 -44.3 5 -46 5 C-46 5.66 -46 6.32 -46 7 C-46.66 7 -47.32 7 -48 7 C-48 6.34 -48 5.68 -48 5 C-48.99 5 -49.98 5 -51 5 C-50.34 8.63 -49.68 12.26 -49 16 C-48.071875 15.649375 -47.14375 15.29875 -46.1875 14.9375 C-43 14 -43 14 -40 15 C-39.67 13.02 -39.34 11.04 -39 9 C-38.34 9 -37.68 9 -37 9 C-36.67 10.32 -36.34 11.64 -36 13 C-34.9275 12.67 -33.855 12.34 -32.75 12 C-26.12399732 10.23306595 -18.83502157 11 -12 11 C-12 15.62 -12 20.24 -12 25 C-11.01 25 -10.02 25 -9 25 C-9 24.01 -9 23.02 -9 22 C-8.01 22 -7.02 22 -6 22 C-6 22.66 -6 23.32 -6 24 C-4.68 24 -3.36 24 -2 24 C-2.165 23.175 -2.33 22.35 -2.5 21.5 C-3.05896045 17.58727683 -3.06807187 13.94816827 -3 10 C-3.99 9.67 -4.98 9.34 -6 9 C-5.01 8.67 -4.02 8.34 -3 8 C-1.98245132 6.1346755 -1.98245132 6.1346755 -1.3125 3.9375 C-0.93544922 2.83728516 -0.93544922 2.83728516 -0.55078125 1.71484375 C-0.36902344 1.14894531 -0.18726563 0.58304688 0 0 Z " fill="#8DAFCA" transform="translate(155,13)"/>
<path d="M0 0 C2.875 -0.1875 2.875 -0.1875 6 0 C8.32536063 3.48804095 8.33457898 4.90140754 8 9 C7.36345658 10.3479743 6.70394612 11.68596724 6 13 C6.495 13.99 6.495 13.99 7 15 C7.07065617 17.04055005 7.08421976 19.08334257 7.0625 21.125 C7.05347656 22.22070312 7.04445312 23.31640625 7.03515625 24.4453125 C7.02355469 25.28835937 7.01195312 26.13140625 7 27 C5.68 27 4.36 27 3 27 C3 26.34 3 25.68 3 25 C2.01 25 1.02 25 0 25 C0 25.99 0 26.98 0 28 C-0.99 28 -1.98 28 -3 28 C-3 23.38 -3 18.76 -3 14 C-6.09375 14.2475 -6.09375 14.2475 -9.25 14.5 C-12.8606038 14.7888483 -16.37552075 15 -20 15 C-20.33 15.33 -20.66 15.66 -21 16 C-22.99958364 16.04080783 -25.00045254 16.04254356 -27 16 C-27.33 14.68 -27.66 13.36 -28 12 C-28.66 12 -29.32 12 -30 12 C-30.33 13.98 -30.66 15.96 -31 18 C-31.7425 17.979375 -32.485 17.95875 -33.25 17.9375 C-35.70462279 17.99328688 -37.66109261 18.3069904 -40 19 C-41.80230168 15.17010894 -42.19622241 12.21878192 -42 8 C-41.01 8 -40.02 8 -39 8 C-39 8.66 -39 9.32 -39 10 C-38.34 10 -37.68 10 -37 10 C-37 9.34 -37 8.68 -37 8 C-35.35 8 -33.7 8 -32 8 C-32 7.34 -32 6.68 -32 6 C-30.02 6 -28.04 6 -26 6 C-25.67 5.34 -25.34 4.68 -25 4 C-19.25 3.875 -19.25 3.875 -17 5 C-17 4.34 -17 3.68 -17 3 C-10.375 2.875 -10.375 2.875 -7 4 C-7 3.01 -7 2.02 -7 1 C-5.68 1 -4.36 1 -3 1 C-3 3.64 -3 6.28 -3 9 C-2.01 9 -1.02 9 0 9 C0 6.03 0 3.06 0 0 Z " fill="#6C99BC" transform="translate(146,10)"/>
<path d="M0 0 C1.32 0 2.64 0 4 0 C4 2.97 4 5.94 4 9 C4.66 9 5.32 9 6 9 C6 6.03 6 3.06 6 0 C7.32 0 8.64 0 10 0 C10.08114106 1.77007714 10.13925505 3.54122098 10.1875 5.3125 C10.23970703 6.79169922 10.23970703 6.79169922 10.29296875 8.30078125 C10 11 10 11 8.63671875 12.8359375 C6.29381152 14.50225338 4.82526481 14.33634105 2 14 C-0.8125 13 -0.8125 13 -3 12 C-3.33 12.99 -3.66 13.98 -4 15 C-7.47042703 17.31361802 -8.91834173 17.51020728 -13 17 C-14.875 15.125 -14.875 15.125 -16 13 C-16 12.34 -16 11.68 -16 11 C-16.66 11 -17.32 11 -18 11 C-18.33 13.31 -18.66 15.62 -19 18 C-20.98 18 -22.96 18 -25 18 C-25 15.69 -25 13.38 -25 11 C-25.66 11 -26.32 11 -27 11 C-27 9.02 -27 7.04 -27 5 C-26.236875 5.226875 -25.47375 5.45375 -24.6875 5.6875 C-23.800625 5.790625 -22.91375 5.89375 -22 6 C-21.505 5.505 -21.01 5.01 -20.5 4.5 C-20.005 4.005 -19.51 3.51 -19 3 C-17.32577014 3.29299023 -15.65821773 3.62690101 -14 4 C-13.01 3.34 -12.02 2.68 -11 2 C-7.57982443 1.60041513 -4.12706959 1.4364652 -1 3 C-0.67 2.01 -0.34 1.02 0 0 Z " fill="#C1D3E1" transform="translate(131,26)"/>
<path d="M0 0 C3.3 0 6.6 0 10 0 C10 0.99 10 1.98 10 3 C10.66 3 11.32 3 12 3 C12.33 2.01 12.66 1.02 13 0 C15.375 0.25 15.375 0.25 18 1 C19.3125 3.0625 19.3125 3.0625 20 5 C21.65 5 23.3 5 25 5 C25.33 3.35 25.66 1.7 26 0 C26.99 0 27.98 0 29 0 C29.33 0.66 29.66 1.32 30 2 C30.33 1.34 30.66 0.68 31 0 C32.65 0 34.3 0 36 0 C36.495 2.475 36.495 2.475 37 5 C39.31 5 41.62 5 44 5 C44.33 3.35 44.66 1.7 45 0 C45.66 0 46.32 0 47 0 C47 2.31 47 4.62 47 7 C36.32978048 7.86032949 25.76248343 8.12737806 15.0625 8.0625 C13.58919426 8.057465 12.11588682 8.0529057 10.64257812 8.04882812 C7.0950156 8.03800377 3.54751948 8.02085455 0 8 C0 5.36 0 2.72 0 0 Z " fill="#86ABC7" transform="translate(13,59)"/>
<path d="M0 0 C4.62 0 9.24 0 14 0 C14 7 14 7 12.875 8.9375 C10.214973 10.44484863 7.99793795 10.19986253 5 10 C4.67 8.68 4.34 7.36 4 6 C3.34 6 2.68 6 2 6 C1.67 7.98 1.34 9.96 1 12 C-0.11375 11.9690625 -0.11375 11.9690625 -1.25 11.9375 C-3.70462279 11.99328688 -5.66109261 12.3069904 -8 13 C-9.80230168 9.17010894 -10.19622241 6.21878192 -10 2 C-9.01 2 -8.02 2 -7 2 C-7 2.66 -7 3.32 -7 4 C-6.34 4 -5.68 4 -5 4 C-5 3.34 -5 2.68 -5 2 C-3.35 2 -1.7 2 0 2 C0 1.34 0 0.68 0 0 Z " fill="#DBE5ED" transform="translate(114,16)"/>
<path d="M0 0 C0.66 0 1.32 0 2 0 C2.61875 1.2375 2.61875 1.2375 3.25 2.5 C4.7863282 5.31271479 4.7863282 5.31271479 7.9375 5.5625 C11.11118104 5.27913537 11.11118104 5.27913537 13.0625 2.9375 C13.701875 2.298125 14.34125 1.65875 15 1 C17.1875 1.25 17.1875 1.25 20 2 C22.31041834 2.01222444 24.60587195 1.93831604 26.9140625 1.83984375 C29 2 29 2 32 4 C31.00956295 8.83628305 30.04301154 13.47618873 28 18 C27.34 17.67 26.68 17.34 26 17 C26 13.37 26 9.74 26 6 C23.69 6 21.38 6 19 6 C19 7.98 19 9.96 19 12 C18.33613281 11.33484375 17.67226562 10.6696875 16.98828125 9.984375 C13.21894379 7.48133784 10.48597671 7.73171477 6.1875 8.25 C5.14819336 8.34861328 5.14819336 8.34861328 4.08789062 8.44921875 C2.38991481 8.61316124 0.69456297 8.80389963 -1 9 C-1 10.32 -1 11.64 -1 13 C-1.66 13 -2.32 13 -3 13 C-3 12.01 -3 11.02 -3 10 C-4.65 10 -6.3 10 -8 10 C-8 9.34 -8 8.68 -8 8 C-6.02 7.67 -4.04 7.34 -2 7 C-1.34 4.69 -0.68 2.38 0 0 Z " fill="#236A9F" transform="translate(113,37)"/>
<path d="M0 0 C0 0.66 0 1.32 0 2 C-1.65 2 -3.3 2 -5 2 C-5 2.66 -5 3.32 -5 4 C-5.66 4 -6.32 4 -7 4 C-7 3.34 -7 2.68 -7 2 C-7.99 2 -8.98 2 -10 2 C-9.34 5.63 -8.68 9.26 -8 13 C-7.071875 12.649375 -6.14375 12.29875 -5.1875 11.9375 C-2 11 -2 11 1 12 C1.33 10.02 1.66 8.04 2 6 C2.66 6 3.32 6 4 6 C4.33 7.32 4.66 8.64 5 10 C6.0725 9.67 7.145 9.34 8.25 9 C14.89499068 7.22800249 22.13482394 8 29 8 C29 8.33 29 8.66 29 9 C27.35 9.33 25.7 9.66 24 10 C23.67 12.97 23.34 15.94 23 19 C22.34 19 21.68 19 21 19 C21 16.03 21 13.06 21 10 C19.68 10.33 18.36 10.66 17 11 C16.67 11.66 16.34 12.32 16 13 C14.98679687 12.96519531 14.98679687 12.96519531 13.953125 12.9296875 C13.06109375 12.91164063 12.1690625 12.89359375 11.25 12.875 C10.36828125 12.85179687 9.4865625 12.82859375 8.578125 12.8046875 C5.8864142 13.00860498 4.30095026 13.63448279 2 15 C2 14.34 2 13.68 2 13 C-1.81413002 14.1678266 -1.81413002 14.1678266 -4.3125 17.125 C-4.539375 17.74375 -4.76625 18.3625 -5 19 C-5.33 18.01 -5.66 17.02 -6 16 C-8.31 15.67 -10.62 15.34 -13 15 C-12.67 13.02 -12.34 11.04 -12 9 C-17.94 9.495 -17.94 9.495 -24 10 C-24 9.34 -24 8.68 -24 8 C-17.565 7.505 -17.565 7.505 -11 7 C-11 5.02 -11 3.04 -11 1 C-7.26513121 0.4254048 -3.78706732 0 0 0 Z " fill="#3877A6" transform="translate(114,16)"/>
<path d="M0 0 C1.2065625 0.0309375 1.2065625 0.0309375 2.4375 0.0625 C2.4375 1.0525 2.4375 2.0425 2.4375 3.0625 C3.0975 3.0625 3.7575 3.0625 4.4375 3.0625 C4.4375 2.0725 4.4375 1.0825 4.4375 0.0625 C5.7575 0.0625 7.0775 0.0625 8.4375 0.0625 C8.4375 5.3425 8.4375 10.6225 8.4375 16.0625 C3.4375 15.0625 3.4375 15.0625 2.4375 14.0625 C2.1075 15.0525 1.7775 16.0425 1.4375 17.0625 C-0.2125 17.0625 -1.8625 17.0625 -3.5625 17.0625 C-3.58934679 14.41659986 -3.60926357 11.77096904 -3.625 9.125 C-3.63337891 8.37025391 -3.64175781 7.61550781 -3.65039062 6.83789062 C-3.65902441 4.91255687 -3.61474333 2.98714419 -3.5625 1.0625 C-2.5625 0.0625 -2.5625 0.0625 0 0 Z " fill="#E0E9F0" transform="translate(107.5625,46.9375)"/>
<path d="M0 0 C1.32 0 2.64 0 4 0 C4 5.28 4 10.56 4 16 C2.35 16 0.7 16 -1 16 C-1 15.01 -1 14.02 -1 13 C-1.99 13 -2.98 13 -4 13 C-4 14.32 -4 15.64 -4 17 C-4.99 17 -5.98 17 -7 17 C-7 12.05 -7 7.1 -7 2 C-2 3 -2 3 -1 4 C-0.67 2.68 -0.34 1.36 0 0 Z " fill="#F2F5F8" transform="translate(165,37)"/>
<path d="M0 0 C1.65 0 3.3 0 5 0 C7.03993514 4.92984325 8.40652968 8.57960425 8 14 C6.046875 14.22786458 4.09375 14.45572917 2.140625 14.68359375 C0.04487337 14.99336726 -1.95497613 15.45189676 -4 16 C-3.71653722 14.08210287 -3.4228972 12.16570817 -3.125 10.25 C-2.88136719 8.64898437 -2.88136719 8.64898437 -2.6328125 7.015625 C-2.06776118 4.32291129 -1.36577086 2.36427561 0 0 Z " fill="#F5F7F9" transform="translate(146,41)"/>
<path d="M0 0 C2 2 2 2 2.1953125 4.1640625 C2.17210937 4.97617187 2.14890625 5.78828125 2.125 6.625 C2.10695312 7.44226562 2.08890625 8.25953125 2.0703125 9.1015625 C2.03550781 10.04128906 2.03550781 10.04128906 2 11 C0.68 11 -0.64 11 -2 11 C-2 9.02 -2 7.04 -2 5 C-3.32 5 -4.64 5 -6 5 C-5.67 8.3 -5.34 11.6 -5 15 C-6.65 15.33 -8.3 15.66 -10 16 C-10 10.72 -10 5.44 -10 0 C-6.25976024 -1.24674659 -3.83399823 -0.76679965 0 0 Z " fill="#DFE9EF" transform="translate(129,45)"/>
<path d="M0 0 C-0.185625 0.61875 -0.37125 1.2375 -0.5625 1.875 C-1.18652488 6.3323206 -0.56103695 10.55486111 0 15 C-2 16 -2 16 -9 16 C-9 11.05 -9 6.1 -9 1 C-3 0 -3 0 0 0 Z " fill="#ECF2F5" transform="translate(183,18)"/>
<path d="M0 0 C1.51400391 0.01740234 1.51400391 0.01740234 3.05859375 0.03515625 C4.07050781 0.04417969 5.08242187 0.05320312 6.125 0.0625 C7.29869141 0.07990234 7.29869141 0.07990234 8.49609375 0.09765625 C8.45484375 0.88140625 8.41359375 1.66515625 8.37109375 2.47265625 C8.20880641 5.25881744 8.20880641 5.25881744 10.49609375 7.09765625 C10.62109375 9.72265625 10.62109375 9.72265625 10.49609375 12.09765625 C11.15609375 12.09765625 11.81609375 12.09765625 12.49609375 12.09765625 C12.49609375 14.40765625 12.49609375 16.71765625 12.49609375 19.09765625 C14.14609375 19.09765625 15.79609375 19.09765625 17.49609375 19.09765625 C17.49609375 19.42765625 17.49609375 19.75765625 17.49609375 20.09765625 C15.18609375 20.42765625 12.87609375 20.75765625 10.49609375 21.09765625 C9.99097131 19.49509517 9.49217748 17.89053833 8.99609375 16.28515625 C8.71765625 15.39183594 8.43921875 14.49851562 8.15234375 13.578125 C7.49609375 11.09765625 7.49609375 11.09765625 7.49609375 8.09765625 C5.84609375 8.42765625 4.19609375 8.75765625 2.49609375 9.09765625 C2.49609375 8.10765625 2.49609375 7.11765625 2.49609375 6.09765625 C0.84609375 6.42765625 -0.80390625 6.75765625 -2.50390625 7.09765625 C-2.88523924 5.10625065 -3.21716207 3.10486548 -3.50390625 1.09765625 C-2.50390625 0.09765625 -2.50390625 0.09765625 0 0 Z " fill="#5D8EB5" transform="translate(93.50390625,24.90234375)"/>
<path d="M0 0 C3.3 0 6.6 0 10 0 C10 3.96 10 7.92 10 12 C8.68 12 7.36 12 6 12 C6 11.34 6 10.68 6 10 C5.01 10 4.02 10 3 10 C3 10.99 3 11.98 3 13 C2.01 13 1.02 13 0 13 C0 8.71 0 4.42 0 0 Z " fill="#E7EEF3" transform="translate(143,25)"/>
<path d="M0 0 C1.32 0 2.64 0 4 0 C4 2.97 4 5.94 4 9 C4.66 9 5.32 9 6 9 C6 6.03 6 3.06 6 0 C7.32 0 8.64 0 10 0 C10.08114106 1.77007714 10.13925505 3.54122098 10.1875 5.3125 C10.22230469 6.29863281 10.25710937 7.28476562 10.29296875 8.30078125 C10 11 10 11 8.6484375 12.8359375 C6.33464771 14.46984593 4.76572542 14.35458018 2 14 C0 12 0 12 -0.1953125 9.1796875 C-0.17210937 8.08914062 -0.14890625 6.99859375 -0.125 5.875 C-0.10695312 4.77929688 -0.08890625 3.68359375 -0.0703125 2.5546875 C-0.04710937 1.71164063 -0.02390625 0.86859375 0 0 Z " fill="#CDDBE6" transform="translate(131,26)"/>
<path d="M0 0 C2.31 0 4.62 0 7 0 C7 4.95 7 9.9 7 15 C8.65 14.67 10.3 14.34 12 14 C11.67 13.34 11.34 12.68 11 12 C10.86584528 9.3276379 10.95681459 6.67749512 11 4 C12.32 4 13.64 4 15 4 C15.144375 4.763125 15.28875 5.52625 15.4375 6.3125 C15.9632594 9.08172908 15.9632594 9.08172908 17 12 C15 15 15 15 12 16 C10.60560336 16.06665376 9.20830125 16.08538199 7.8125 16.0625 C5.9253125 16.0315625 5.9253125 16.0315625 4 16 C4 11.05 4 6.1 4 1 C2.68 0.67 1.36 0.34 0 0 Z " fill="#94B5CD" transform="translate(112,46)"/>
<path d="M0 0 C3.42857143 8.42857143 3.42857143 8.42857143 3 13 C0.36 12.67 -2.28 12.34 -5 12 C-5 12.66 -5 13.32 -5 14 C-5.99 14 -6.98 14 -8 14 C-6.81 3.97 -6.81 3.97 -6 1 C-4 0 -4 0 0 0 Z " fill="#E4EBF1" transform="translate(101,33)"/>
<path d="M0 0 C2.33294775 -0.04241723 4.66702567 -0.04092937 7 0 C8 1 8 1 8.375 4.25 C8 8 8 8 5.875 10.9375 C2.54095495 13.32931492 1.01298073 13.62424145 -3 13 C-5 11 -5 11 -5.1953125 8.8359375 C-5.17210938 8.02382813 -5.14890625 7.21171875 -5.125 6.375 C-5.10695313 5.55773438 -5.08890625 4.74046875 -5.0703125 3.8984375 C-5.04710938 3.27195313 -5.02390625 2.64546875 -5 2 C-4.01 1.67 -3.02 1.34 -2 1 C-2 3.31 -2 5.62 -2 8 C-0.35 7.67 1.3 7.34 3 7 C3.25030977 4.58380177 3.25030977 4.58380177 3 2 C2.01 1.34 1.02 0.68 0 0 Z " fill="#D2DFE9" transform="translate(121,30)"/>
<path d="M0 0 C-0.33 1.32 -0.66 2.64 -1 4 C-2.32 4 -3.64 4 -5 4 C-5 4.66 -5 5.32 -5 6 C-3.68 6 -2.36 6 -1 6 C-1.33 6.99 -1.66 7.98 -2 9 C-2.99 9 -3.98 9 -5 9 C-5 10.98 -5 12.96 -5 15 C-6.65 15.33 -8.3 15.66 -10 16 C-10 11.05 -10 6.1 -10 1 C-6.52674819 -0.1577506 -3.63932552 -0.06866652 0 0 Z " fill="#BDD1E0" transform="translate(93,34)"/>
<path d="M0 0 C0.99 0 1.98 0 3 0 C3 0.66 3 1.32 3 2 C3.66 2 4.32 2 5 2 C5 1.34 5 0.68 5 0 C5.99 0 6.98 0 8 0 C8 0.66 8 1.32 8 2 C8.99 2 9.98 2 11 2 C11.33 1.34 11.66 0.68 12 0 C12.125 7.75 12.125 7.75 11 10 C9.88625 9.9690625 9.88625 9.9690625 8.75 9.9375 C6.29537721 9.99328688 4.33890739 10.3069904 2 11 C0.19769832 7.17010894 -0.19622241 4.21878192 0 0 Z " fill="#DCE5ED" transform="translate(104,18)"/>
<path d="M0 0 C2.875 -0.1875 2.875 -0.1875 6 0 C8 3 8 3 7.625 5.6875 C7.41875 6.450625 7.2125 7.21375 7 8 C6.67 6.68 6.34 5.36 6 4 C5.01 4 4.02 4 3 4 C3 5.32 3 6.64 3 8 C3.66 8 4.32 8 5 8 C5 8.99 5 9.98 5 11 C1.37 11.33 -2.26 11.66 -6 12 C-6 8.7 -6 5.4 -6 2 C-5.01 2 -4.02 2 -3 2 C-3 4.31 -3 6.62 -3 9 C-2.01 9 -1.02 9 0 9 C0 6.03 0 3.06 0 0 Z " fill="#C4D5E2" transform="translate(146,10)"/>
<path d="M0 0 C0.05399736 1.45792884 0.09279177 2.91642712 0.125 4.375 C0.14820313 5.18710938 0.17140625 5.99921875 0.1953125 6.8359375 C0 9 0 9 -2 11 C-4.625 11.125 -4.625 11.125 -7 11 C-7 9.02 -7 7.04 -7 5 C-8.32 5 -9.64 5 -11 5 C-11.33 6.32 -11.66 7.64 -12 9 C-12.33 7.35 -12.66 5.7 -13 4 C-12.34 4 -11.68 4 -11 4 C-11 3.01 -11 2.02 -11 1 C-10.38125 0.855625 -9.7625 0.71125 -9.125 0.5625 C-3.69444444 -0.875 -3.69444444 -0.875 0 0 Z " fill="#DEE7EE" transform="translate(166,8)"/>
<path d="M0 0 C2.31 0 4.62 0 7 0 C6.67 4.95 6.34 9.9 6 15 C4.35 15.33 2.7 15.66 1 16 C0.67 10.72 0.34 5.44 0 0 Z " fill="#D7E2EC" transform="translate(96,49)"/>
<path d="M0 0 C1.32 0 2.64 0 4 0 C3.67 2.64 3.34 5.28 3 8 C2.01 8.33 1.02 8.66 0 9 C0.165 9.515625 0.33 10.03125 0.5 10.5625 C1.15049 13.73363876 1.0620734 16.77218334 1 20 C-0.32 20.33 -1.64 20.66 -3 21 C-3 17.37 -3 13.74 -3 10 C-3.99 9.67 -4.98 9.34 -6 9 C-5.01 8.67 -4.02 8.34 -3 8 C-1.98245132 6.1346755 -1.98245132 6.1346755 -1.3125 3.9375 C-1.06113281 3.20402344 -0.80976563 2.47054688 -0.55078125 1.71484375 C-0.36902344 1.14894531 -0.18726563 0.58304688 0 0 Z " fill="#176299" transform="translate(155,13)"/>
<path d="M0 0 C1.98 0 3.96 0 6 0 C6 4.62 6 9.24 6 14 C4.35 14 2.7 14 1 14 C0.67 9.38 0.34 4.76 0 0 Z " fill="#D0DDE8" transform="translate(155,22)"/>
<path d="M0 0 C0.66 0 1.32 0 2 0 C1.85915204 1.79206547 1.71216299 3.58364917 1.5625 5.375 C1.48128906 6.37273438 1.40007812 7.37046875 1.31640625 8.3984375 C1 11 1 11 0 13 C-1.98 13 -3.96 13 -6 13 C-6 10.69 -6 8.38 -6 6 C-6.66 6 -7.32 6 -8 6 C-8 4.35 -8 2.7 -8 1 C-7.01 1 -6.02 1 -5 1 C-5 2.65 -5 4.3 -5 6 C-3.68 6 -2.36 6 -1 6 C-0.67 4.02 -0.34 2.04 0 0 Z " fill="#EBF1F5" transform="translate(112,31)"/>
<path d="M0 0 C1.98 0 3.96 0 6 0 C5.67 4.95 5.34 9.9 5 15 C3.35 15 1.7 15 0 15 C0 10.05 0 5.1 0 0 Z " fill="#EDF2F6" transform="translate(133,43)"/>
<path d="M0 0 C1.65 0 3.3 0 5 0 C5 4.29 5 8.58 5 13 C5.99 13 6.98 13 8 13 C8 12.01 8 11.02 8 10 C8.99 10.33 9.98 10.66 11 11 C10.34 11 9.68 11 9 11 C9 12.32 9 13.64 9 15 C10.65 15 12.3 15 14 15 C14.33 17.31 14.66 19.62 15 22 C13 19 13 19 13 16 C11.35 16 9.7 16 8 16 C7.34 17.32 6.68 18.64 6 20 C6 18.68 6 17.36 6 16 C3.03 15.505 3.03 15.505 0 15 C0.66 14.01 1.32 13.02 2 12 C2.45772063 9.26127045 2.45772063 9.26127045 2.625 6.3125 C2.69976562 5.31863281 2.77453125 4.32476562 2.8515625 3.30078125 C2.90054688 2.54152344 2.94953125 1.78226563 3 1 C2.01 0.67 1.02 0.34 0 0 Z " fill="#95B2CC" transform="translate(138,25)"/>
<path d="M0 0 C0 0.66 0 1.32 0 2 C-0.99 2 -1.98 2 -3 2 C-3 2.66 -3 3.32 -3 4 C-5.97 5.32 -8.94 6.64 -12 8 C-12 8.99 -12 9.98 -12 11 C-12.99 11 -13.98 11 -15 11 C-14.83212371 6.63521657 -14.66369248 4.63131724 -11.4375 1.5625 C-7.18771527 -0.36922033 -4.61356825 -0.31817712 0 0 Z " fill="#20689D" transform="translate(34,37)"/>
<path d="M0 0 C0 0.99 0 1.98 0 3 C-0.99 3.495 -0.99 3.495 -2 4 C-2.46751788 6.35599235 -2.46751788 6.35599235 -2.625 9.0625 C-2.69976562 9.98160156 -2.77453125 10.90070312 -2.8515625 11.84765625 C-2.90054688 12.55792969 -2.94953125 13.26820312 -3 14 C-3.99 14 -4.98 14 -6 14 C-6 11.03 -6 8.06 -6 5 C-7.32 4.67 -8.64 4.34 -10 4 C-9.67 3.01 -9.34 2.02 -9 1 C-5.8035914 -0.06546953 -3.34252724 -0.07427838 0 0 Z " fill="#CFDDE8" transform="translate(172,20)"/>
<path d="M0 0 C0.33 0 0.66 0 1 0 C1 10.23 1 20.46 1 31 C-0.98 31 -2.96 31 -5 31 C-5 30.34 -5 29.68 -5 29 C-3.35 29 -1.7 29 0 29 C0 23.72 0 18.44 0 13 C-1.32 13 -2.64 13 -4 13 C-4 9.04 -4 5.08 -4 1 C-3.67 1 -3.34 1 -3 1 C-3 3.97 -3 6.94 -3 10 C-2.01 10 -1.02 10 0 10 C0 6.7 0 3.4 0 0 Z " fill="#7EA5C3" transform="translate(169,24)"/>
<path d="M0 0 C0.99 0 1.98 0 3 0 C2.814375 0.61875 2.62875 1.2375 2.4375 1.875 C1.81347512 6.3323206 2.43896305 10.55486111 3 15 C0.04335481 16.4783226 -2.74229737 16.06032783 -6 16 C-2.77208445 13.8480563 -1.71599191 13.79913557 2 14 C2 13.34 2 12.68 2 12 C0.35 12 -1.3 12 -3 12 C-2.814375 11.4225 -2.62875 10.845 -2.4375 10.25 C-1.95976454 7.79307475 -2.24270636 6.35602466 -3 4 C-1.35 3.67 0.3 3.34 2 3 C2 2.34 2 1.68 2 1 C1.34 0.67 0.68 0.34 0 0 Z " fill="#ADC5D8" transform="translate(180,18)"/>
<path d="M0 0 C2.5 0.3125 2.5 0.3125 5 1 C5.99 1 6.98 1 8 1 C6.02 1.99 6.02 1.99 4 3 C4 5.31 4 7.62 4 10 C3.67 9.34 3.34 8.68 3 8 C2.34 8 1.68 8 1 8 C1.33 6.02 1.66 4.04 2 2 C1.34 2 0.68 2 0 2 C-0.33 3.98 -0.66 5.96 -1 8 C-2.32 8 -3.64 8 -5 8 C-5 6.35 -5 4.7 -5 3 C-5.99 2.67 -6.98 2.34 -8 2 C-6.8553125 2.3403125 -6.8553125 2.3403125 -5.6875 2.6875 C-4.800625 2.790625 -3.91375 2.89375 -3 3 C-2.505 2.505 -2.01 2.01 -1.5 1.5 C-1.005 1.005 -0.51 0.51 0 0 Z " fill="#94B3CD" transform="translate(112,29)"/>
<path d="M0 0 C1.65 0 3.3 0 5 0 C6.58272601 1.58272601 6.34735747 3.38034003 6.5625 5.5625 C6.64628906 6.38878906 6.73007813 7.21507812 6.81640625 8.06640625 C6.87699219 8.70449219 6.93757812 9.34257812 7 10 C4.03 9.505 4.03 9.505 1 9 C0.67 9.66 0.34 10.32 0 11 C0 7.37 0 3.74 0 0 Z " fill="#E9EFF3" transform="translate(131,13)"/>
<path d="M0 0 C0.33 1.32 0.66 2.64 1 4 C1.33 3.34 1.66 2.68 2 2 C3.32 2.33 4.64 2.66 6 3 C6 3.99 6 4.98 6 6 C5.01 6.495 5.01 6.495 4 7 C4.99 7.33 5.98 7.66 7 8 C7 8.66 7 9.32 7 10 C4.03 10.66 1.06 11.32 -2 12 C-1.34 8.04 -0.68 4.08 0 0 Z " fill="#E0E9EF" transform="translate(144,45)"/>
<path d="M0 0 C1.51400391 0.01740234 1.51400391 0.01740234 3.05859375 0.03515625 C4.07050781 0.04417969 5.08242187 0.05320312 6.125 0.0625 C7.29869141 0.07990234 7.29869141 0.07990234 8.49609375 0.09765625 C8.49609375 1.74765625 8.49609375 3.39765625 8.49609375 5.09765625 C5.85609375 5.09765625 3.21609375 5.09765625 0.49609375 5.09765625 C0.49609375 4.43765625 0.49609375 3.77765625 0.49609375 3.09765625 C-0.16390625 3.09765625 -0.82390625 3.09765625 -1.50390625 3.09765625 C-1.83390625 4.08765625 -2.16390625 5.07765625 -2.50390625 6.09765625 C-2.88609392 4.44150968 -3.21785727 2.77308601 -3.50390625 1.09765625 C-2.50390625 0.09765625 -2.50390625 0.09765625 0 0 Z " fill="#96B3CC" transform="translate(93.50390625,24.90234375)"/>
<path d="M0 0 C0 0.66 0 1.32 0 2 C-1.65 2 -3.3 2 -5 2 C-5 2.66 -5 3.32 -5 4 C-5.66 4 -6.32 4 -7 4 C-7 3.34 -7 2.68 -7 2 C-7.99 2 -8.98 2 -10 2 C-9.91621094 2.62648438 -9.83242187 3.25296875 -9.74609375 3.8984375 C-9.64425781 4.71570313 -9.54242188 5.53296875 -9.4375 6.375 C-9.33308594 7.18710937 -9.22867188 7.99921875 -9.12109375 8.8359375 C-9 11 -9 11 -10 13 C-10.66 13 -11.32 13 -12 13 C-12 11.68 -12 10.36 -12 9 C-17.94 9.495 -17.94 9.495 -24 10 C-24 9.34 -24 8.68 -24 8 C-17.565 7.505 -17.565 7.505 -11 7 C-11 5.02 -11 3.04 -11 1 C-7.26513121 0.4254048 -3.78706732 0 0 0 Z " fill="#4F85AF" transform="translate(114,16)"/>
<path d="M0 0 C4.455 0.99 4.455 0.99 9 2 C9 6.62 9 11.24 9 16 C5 8 5 8 5 4 C3.35 4 1.7 4 0 4 C0 2.68 0 1.36 0 0 Z " fill="#0F5C96" transform="translate(147,36)"/>
<path d="M0 0 C0.61875 0.165 1.2375 0.33 1.875 0.5 C6.25470729 1.20075317 10.57428989 1.07734251 15 1 C15 1.33 15 1.66 15 2 C13.35 2.33 11.7 2.66 10 3 C9.67 5.97 9.34 8.94 9 12 C8.34 12 7.68 12 7 12 C7 9.03 7 6.06 7 3 C5.68 3.33 4.36 3.66 3 4 C2.67 4.66 2.34 5.32 2 6 C0.68 5.67 -0.64 5.34 -2 5 C-1.34 3.35 -0.68 1.7 0 0 Z " fill="#2A6EA1" transform="translate(128,23)"/>
<path d="M0 0 C0.33 0 0.66 0 1 0 C1 1.98 1 3.96 1 6 C1.99 5.67 2.98 5.34 4 5 C4 6.65 4 8.3 4 10 C3.01 9.34 2.02 8.68 1 8 C-2.14221967 8.31506627 -2.14221967 8.31506627 -5 9 C-5 8.01 -5 7.02 -5 6 C-6.98 6 -8.96 6 -11 6 C-10.01 5.67 -9.02 5.34 -8 5 C-8 4.01 -8 3.02 -8 2 C-7.01 1.67 -6.02 1.34 -5 1 C-5 1.99 -5 2.98 -5 4 C-3.35 4 -1.7 4 0 4 C0 2.68 0 1.36 0 0 Z " fill="#6091B7" transform="translate(161,32)"/>
<path d="M0 0 C4.5073626 0.53027795 7.4539073 2.19611275 11 5 C11 5.99 11 6.98 11 8 C5.375 9.125 5.375 9.125 2 8 C2 7.34 2 6.68 2 6 C2.66 6 3.32 6 4 6 C3.73323796 4.01508358 3.73323796 4.01508358 3 2 C2.01 1.67 1.02 1.34 0 1 C0 0.67 0 0.34 0 0 Z " fill="#4E86AF" transform="translate(24,17)"/>
<path d="M0 0 C0.66 0 1.32 0 2 0 C2.33 2.97 2.66 5.94 3 9 C3.99 9.33 4.98 9.66 6 10 C5.34 10 4.68 10 4 10 C4 10.66 4 11.32 4 12 C0.125 11.125 0.125 11.125 -1 10 C-1.04092937 7.66702567 -1.04241723 5.33294775 -1 3 C-3.31 3 -5.62 3 -8 3 C-8 2.34 -8 1.68 -8 1 C-2.25 0.875 -2.25 0.875 0 2 C0 1.34 0 0.68 0 0 Z " fill="#93B3CD" transform="translate(129,13)"/>
<path d="M0 0 C0.66 0 1.32 0 2 0 C2.99 1.98 3.98 3.96 5 6 C3.68 5.67 2.36 5.34 1 5 C1 5.66 1 6.32 1 7 C2.65 7.33 4.3 7.66 6 8 C6 8.33 6 8.66 6 9 C3.69 9 1.38 9 -1 9 C-1 10.32 -1 11.64 -1 13 C-1.66 13 -2.32 13 -3 13 C-3 12.01 -3 11.02 -3 10 C-4.65 10 -6.3 10 -8 10 C-8 9.34 -8 8.68 -8 8 C-6.02 7.67 -4.04 7.34 -2 7 C-1.34 4.69 -0.68 2.38 0 0 Z " fill="#417DAA" transform="translate(113,37)"/>
<path d="M0 0 C0 0.66 0 1.32 0 2 C-1.65532623 3.01866229 -3.32260138 4.01810813 -5 5 C-5.33 5.66 -5.66 6.32 -6 7 C-5.01 7 -4.02 7 -3 7 C-3 7.99 -3 8.98 -3 10 C-1.576875 9.9071875 -1.576875 9.9071875 -0.125 9.8125 C0.90625 9.874375 1.9375 9.93625 3 10 C3.99 11.485 3.99 11.485 5 13 C0.545 12.01 0.545 12.01 -4 11 C-4 10.34 -4 9.68 -4 9 C-4.99 9 -5.98 9 -7 9 C-7 8.34 -7 7.68 -7 7 C-7.99 6.67 -8.98 6.34 -10 6 C-10 5.34 -10 4.68 -10 4 C-8.71086513 3.32845067 -7.41859796 2.66291141 -6.125 2 C-5.40570313 1.62875 -4.68640625 1.2575 -3.9453125 0.875 C-2 0 -2 0 0 0 Z " fill="#558BB3" transform="translate(53,25)"/>
<path d="M0 0 C0.66 0 1.32 0 2 0 C2 1.65 2 3.3 2 5 C2.99 5.33 3.98 5.66 5 6 C5 6.33 5 6.66 5 7 C2.87506859 7.02693575 0.75004088 7.04636628 -1.375 7.0625 C-2.55835938 7.07410156 -3.74171875 7.08570312 -4.9609375 7.09765625 C-8 7 -8 7 -10 6 C-10.72159424 4.35636866 -11.39351421 2.68949614 -12 1 C-10.68 1 -9.36 1 -8 1 C-7.34 2.32 -6.68 3.64 -6 5 C-4.35 5 -2.7 5 -1 5 C-0.67 3.35 -0.34 1.7 0 0 Z " fill="#B7CBDC" transform="translate(39,59)"/>
<path d="M0 0 C0.33 0 0.66 0 1 0 C1.33 2.64 1.66 5.28 2 8 C2.99 6.68 3.98 5.36 5 4 C4.67 6.31 4.34 8.62 4 11 C5.32 10.67 6.64 10.34 8 10 C8 10.66 8 11.32 8 12 C4.98509443 13.00496852 2.95818308 13.10335303 -0.1875 13.0625 C-1.53908203 13.04896484 -1.53908203 13.04896484 -2.91796875 13.03515625 C-3.60503906 13.02355469 -4.29210937 13.01195312 -5 13 C-5 12.67 -5 12.34 -5 12 C-3.35 12 -1.7 12 0 12 C0 8.04 0 4.08 0 0 Z " fill="#91B2CC" transform="translate(138,46)"/>
<path d="M0 0 C1.32 0 2.64 0 4 0 C4.144375 0.763125 4.28875 1.52625 4.4375 2.3125 C4.9632594 5.08172908 4.9632594 5.08172908 6 8 C4.35 8.66 2.7 9.32 1 10 C-0.60725635 6.78548731 -0.05748185 3.56387464 0 0 Z " fill="#E8EEF2" transform="translate(123,50)"/>
<path d="M0 0 C0.66 0 1.32 0 2 0 C2 2.31 2 4.62 2 7 C-1.63 7 -5.26 7 -9 7 C-9.33 5.68 -9.66 4.36 -10 3 C-10.99 3 -11.98 3 -13 3 C-13 2.34 -13 1.68 -13 1 C-10.525 1.495 -10.525 1.495 -8 2 C-8 2.99 -8 3.98 -8 5 C-5.69 5 -3.38 5 -1 5 C-0.67 3.35 -0.34 1.7 0 0 Z " fill="#C2D4E1" transform="translate(58,59)"/>
<path d="M0 0 C0.66 0 1.32 0 2 0 C2.33 1.65 2.66 3.3 3 5 C2.030625 5.12375 1.06125 5.2475 0.0625 5.375 C-1.4534375 5.684375 -1.4534375 5.684375 -3 6 C-3.33 6.66 -3.66 7.32 -4 8 C-4.99 8 -5.98 8 -7 8 C-6.67 6.02 -6.34 4.04 -6 2 C-4.02 2 -2.04 2 0 2 C0 1.34 0 0.68 0 0 Z " fill="#F1F5F7" transform="translate(100,39)"/>
<path d="M0 0 C1.32 0 2.64 0 4 0 C4 3.63 4 7.26 4 11 C3.01 11.33 2.02 11.66 1 12 C0.67 8.04 0.34 4.08 0 0 Z " fill="#125F97" transform="translate(161,26)"/>
<path d="M0 0 C0.66 0 1.32 0 2 0 C2 1.65 2 3.3 2 5 C3.32 5 4.64 5 6 5 C6 3.35 6 1.7 6 0 C6.99 0 7.98 0 9 0 C9 1.32 9 2.64 9 4 C9.66 4 10.32 4 11 4 C11 4.66 11 5.32 11 6 C7.37 6 3.74 6 0 6 C0 4.02 0 2.04 0 0 Z " fill="#C8D7E2" transform="translate(13,60)"/>
<path d="M0 0 C2 3 2 3 1.7578125 5.48046875 C1.54898438 6.37378906 1.34015625 7.26710938 1.125 8.1875 C0.92132813 9.08855469 0.71765625 9.98960938 0.5078125 10.91796875 C0.34023437 11.60503906 0.17265625 12.29210938 0 13 C0.66 13.33 1.32 13.66 2 14 C1.01 14 0.02 14 -1 14 C-1 12.68 -1 11.36 -1 10 C-2.32 9.67 -3.64 9.34 -5 9 C-4.01 8.67 -3.02 8.34 -2 8 C-1.67 7.34 -1.34 6.68 -1 6 C-2.32 6 -3.64 6 -5 6 C-5 5.34 -5 4.68 -5 4 C-4.0409375 3.8453125 -4.0409375 3.8453125 -3.0625 3.6875 C-2.381875 3.460625 -1.70125 3.23375 -1 3 C-0.67 2.01 -0.34 1.02 0 0 Z " fill="#6293B7" transform="translate(93,34)"/>
<path d="M0 0 C0.33 0 0.66 0 1 0 C1.33 3.63 1.66 7.26 2 11 C3.32 11 4.64 11 6 11 C6.33 10.01 6.66 9.02 7 8 C6.125 12.875 6.125 12.875 5 14 C3.02 14 1.04 14 -1 14 C-0.67 9.38 -0.34 4.76 0 0 Z " fill="#84ABC8" transform="translate(96,53)"/>
<path d="M0 0 C2 2 2 2 2 6 C3.65 5.67 5.3 5.34 7 5 C6.67 6.98 6.34 8.96 6 11 C5.67 10.01 5.34 9.02 5 8 C1.37 8.33 -2.26 8.66 -6 9 C-6 8.34 -6 7.68 -6 7 C-3.69 7 -1.38 7 1 7 C0.67 4.69 0.34 2.38 0 0 Z " fill="#3274A4" transform="translate(89,26)"/>
<path d="M0 0 C2.4375 0.75 2.4375 0.75 5 2 C5.66015625 4.078125 5.66015625 4.078125 6 6 C4.5199159 5.88637738 3.04089926 5.75877092 1.5625 5.625 C0.73878906 5.55539063 -0.08492187 5.48578125 -0.93359375 5.4140625 C-1.61550781 5.27742188 -2.29742188 5.14078125 -3 5 C-3.33 4.34 -3.66 3.68 -4 3 C-3.01 3 -2.02 3 -1 3 C-0.67 2.01 -0.34 1.02 0 0 Z " fill="#2B6FA2" transform="translate(22,17)"/>
<path d="M0 0 C1.98 0 3.96 0 6 0 C6.33 1.65 6.66 3.3 7 5 C6.01 5.495 6.01 5.495 5 6 C5 4.68 5 3.36 5 2 C4.01 2 3.02 2 2 2 C2 3.32 2 4.64 2 6 C2.66 6 3.32 6 4 6 C4 6.66 4 7.32 4 8 C2.68 8 1.36 8 0 8 C0 5.36 0 2.72 0 0 Z " fill="#E9EFF4" transform="translate(147,12)"/>
<path d="M0 0 C0.99 0 1.98 0 3 0 C3.33 3.3 3.66 6.6 4 10 C2.35 10.33 0.7 10.66 -1 11 C-0.67 7.37 -0.34 3.74 0 0 Z " fill="#F8FAFB" transform="translate(98,54)"/>
<path d="M0 0 C-0.33 1.98 -0.66 3.96 -1 6 C-3.31 6.33 -5.62 6.66 -8 7 C-7.67 6.34 -7.34 5.68 -7 5 C-6.01 5 -5.02 5 -4 5 C-4 4.34 -4 3.68 -4 3 C-3.01 3 -2.02 3 -1 3 C-1 2.34 -1 1.68 -1 1 C-5.455 1.495 -5.455 1.495 -10 2 C-10 1.34 -10 0.68 -10 0 C-6.30581799 -1.231394 -3.7943739 -0.64432764 0 0 Z " fill="#8AAECA" transform="translate(35,36)"/>
<path d="M0 0 C0.66 0 1.32 0 2 0 C2.08121924 1.60332791 2.13929134 3.20784026 2.1875 4.8125 C2.22230469 5.70582031 2.25710937 6.59914063 2.29296875 7.51953125 C2 10 2 10 0.65625 11.8125 C-1.60764557 13.43567041 -3.28307271 13.2202914 -6 13 C-4.68 12.67 -3.36 12.34 -2 12 C-2 11.01 -2 10.02 -2 9 C-1.34 9 -0.68 9 0 9 C0 6.03 0 3.06 0 0 Z " fill="#E7EEF3" transform="translate(139,27)"/>
<path d="M0 0 C1.32 0.33 2.64 0.66 4 1 C3.34 4.63 2.68 8.26 2 12 C1.34 12 0.68 12 0 12 C0 8.04 0 4.08 0 0 Z " fill="#FAFCFB" transform="translate(84,36)"/>
<path d="M0 0 C1.65 0 3.3 0 5 0 C5 0.99 5 1.98 5 3 C3.35 3.33 1.7 3.66 0 4 C-0.33 5.32 -0.66 6.64 -1 8 C-1 6.68 -1 5.36 -1 4 C-2.32 4 -3.64 4 -5 4 C-4.67 3.01 -4.34 2.02 -4 1 C-4 1.66 -4 2.32 -4 3 C-3.01 2.67 -2.02 2.34 -1 2 C-0.67 1.34 -0.34 0.68 0 0 Z " fill="#447FAA" transform="translate(96,45)"/>
<path d="M0 0 C-0.33 1.65 -0.66 3.3 -1 5 C-1.66 5 -2.32 5 -3 5 C-3.33 5.99 -3.66 6.98 -4 8 C-4.33 8 -4.66 8 -5 8 C-5 5.69 -5 3.38 -5 1 C-5.66 0.67 -6.32 0.34 -7 0 C-4.3333581 -1.33332095 -2.83319697 -0.67102033 0 0 Z " fill="#0A5A93" transform="translate(145,40)"/>
<path d="M0 0 C2.31 0 4.62 0 7 0 C7 0.99 7 1.98 7 3 C5.35 3 3.7 3 2 3 C1.67 4.98 1.34 6.96 1 9 C0.67 9 0.34 9 0 9 C0 6.03 0 3.06 0 0 Z " fill="#F0F4F7" transform="translate(144,25)"/>
<path d="M0 0 C0.66 0.66 1.32 1.32 2 2 C2.33 1.34 2.66 0.68 3 0 C4.65 0 6.3 0 8 0 C6.68 0.33 5.36 0.66 4 1 C4 1.66 4 2.32 4 3 C4.99 3 5.98 3 7 3 C7 3.99 7 4.98 7 6 C4.69 5.67 2.38 5.34 0 5 C0 3.35 0 1.7 0 0 Z " fill="#9BB8D0" transform="translate(41,59)"/>
<path d="M0 0 C0 0.66 0 1.32 0 2 C-0.99 2.66 -1.98 3.32 -3 4 C-3.57748803 5.96361864 -3.57748803 5.96361864 -3.6875 8.125 C-3.8421875 10.043125 -3.8421875 10.043125 -4 12 C-4.33 12 -4.66 12 -5 12 C-5 9.03 -5 6.06 -5 3 C-5.99 3 -6.98 3 -8 3 C-8 2.34 -8 1.68 -8 1 C-5.07175348 0.02391783 -3.04386724 -0.08226668 0 0 Z " fill="#F7F9FA" transform="translate(172,21)"/>
<path d="M0 0 C1.65 0.33 3.3 0.66 5 1 C5 3.31 5 5.62 5 8 C4.67 7.34 4.34 6.68 4 6 C3.34 6 2.68 6 2 6 C1.67 5.34 1.34 4.68 1 4 C0.01 4 -0.98 4 -2 4 C-2 3.34 -2 2.68 -2 2 C-1.34 2 -0.68 2 0 2 C0 1.34 0 0.68 0 0 Z " fill="#A4BFD5" transform="translate(114,16)"/>
<path d="M0 0 C0.66 0 1.32 0 2 0 C1.39009109 3.55780196 0.4216319 6.6828589 -1 10 C-1.66 9.67 -2.32 9.34 -3 9 C-3 6.36 -3 3.72 -3 1 C-2.01 1.495 -2.01 1.495 -1 2 C-0.67 1.34 -0.34 0.68 0 0 Z " fill="#236A9E" transform="translate(142,45)"/>
<path d="M0 0 C0.66 0 1.32 0 2 0 C1.67 2.97 1.34 5.94 1 9 C0.34 7.68 -0.32 6.36 -1 5 C-2.32 5.33 -3.64 5.66 -5 6 C-5 5.01 -5 4.02 -5 3 C-3.35 3 -1.7 3 0 3 C0 2.01 0 1.02 0 0 Z " fill="#BFD1DF" transform="translate(151,25)"/>
<path d="M0 0 C0.99 0 1.98 0 3 0 C4.125 2.3125 4.125 2.3125 5 5 C4.01 6.485 4.01 6.485 3 8 C-0.625 8.1875 -0.625 8.1875 -4 8 C-4 7.67 -4 7.34 -4 7 C-2.02 7 -0.04 7 2 7 C2 6.01 2 5.02 2 4 C1.34 4 0.68 4 0 4 C0 2.68 0 1.36 0 0 Z " fill="#8CAFCA" transform="translate(149,14)"/>
<path d="M0 0 C1.1446875 0.2784375 1.1446875 0.2784375 2.3125 0.5625 C5.08967375 1.22819173 5.08967375 1.22819173 8 0 C7.67 1.98 7.34 3.96 7 6 C5.68 6 4.36 6 3 6 C3 4.35 3 2.7 3 1 C2.01 0.67 1.02 0.34 0 0 Z " fill="#B4CADB" transform="translate(104,31)"/>
<path d="M0 0 C0 1.32 0 2.64 0 4 C-2.31 4 -4.62 4 -7 4 C-7 3.01 -7 2.02 -7 1 C-4.53721199 -0.231394 -2.7204945 -0.07159196 0 0 Z " fill="#CDD7E2" transform="translate(102,25)"/>
<path d="M0 0 C0.33 0.66 0.66 1.32 1 2 C1.99 2 2.98 2 4 2 C4.33 1.34 4.66 0.68 5 0 C5.125 7.75 5.125 7.75 4 10 C3.01 9.67 2.02 9.34 1 9 C1.66 9 2.32 9 3 9 C3 7.35 3 5.7 3 4 C2.01 4 1.02 4 0 4 C0 2.68 0 1.36 0 0 Z " fill="#CFDCE8" transform="translate(111,18)"/>
<path d="M0 0 C0.33 0 0.66 0 1 0 C2.31626692 3.61973402 3 6.09567131 3 10 C1.35 10 -0.3 10 -2 10 C-2 9.01 -2 8.02 -2 7 C-1.34 7 -0.68 7 0 7 C0 4.69 0 2.38 0 0 Z " fill="#F7F9FA" transform="translate(135,48)"/>
<path d="M0 0 C0.33 0 0.66 0 1 0 C1.103125 1.093125 1.20625 2.18625 1.3125 3.3125 C1.97307727 6.85559629 2.2027092 7.93243723 5 10 C3.33388095 10.042721 1.66617115 10.04063832 0 10 C-1 9 -1 9 -1.1328125 7.1875 C-1.13023438 6.465625 -1.12765625 5.74375 -1.125 5 C-1.12757812 4.278125 -1.13015625 3.55625 -1.1328125 2.8125 C-1 1 -1 1 0 0 Z " fill="#F6F8F9" transform="translate(118,31)"/>
<path d="M0 0 C0.33 0 0.66 0 1 0 C1 3.63 1 7.26 1 11 C0.34 11 -0.32 11 -1 11 C-1.12375 9.906875 -1.2475 8.81375 -1.375 7.6875 C-1.75464801 3.92618198 -1.75464801 3.92618198 -4 1 C-2.68 1.33 -1.36 1.66 0 2 C0 1.34 0 0.68 0 0 Z " fill="#78A0C1" transform="translate(130,27)"/>
<path d="M0 0 C0.66 0 1.32 0 2 0 C2 2.31 2 4.62 2 7 C3.65 7 5.3 7 7 7 C7 7.33 7 7.66 7 8 C4.69 8.33 2.38 8.66 0 9 C-1.125 2.25 -1.125 2.25 0 0 Z " fill="#84AAC7" transform="translate(104,37)"/>
<path d="M0 0 C0.99 0 1.98 0 3 0 C3 2.64 3 5.28 3 8 C2.01 8 1.02 8 0 8 C0 5.36 0 2.72 0 0 Z " fill="#3172A4" transform="translate(143,11)"/>
<path d="M0 0 C0.66 0 1.32 0 2 0 C2 0.99 2 1.98 2 3 C2.99 3 3.98 3 5 3 C4.67 4.98 4.34 6.96 4 9 C3.67 7.68 3.34 6.36 3 5 C0.03 4.505 0.03 4.505 -3 4 C-1.625 2 -1.625 2 0 0 Z " fill="#5C8FB4" transform="translate(141,36)"/>
<path d="M0 0 C1.98 0 3.96 0 6 0 C6 0.66 6 1.32 6 2 C5.01 2 4.02 2 3 2 C3 2.66 3 3.32 3 4 C1.35 4 -0.3 4 -2 4 C-2 3.34 -2 2.68 -2 2 C-1.34 2 -0.68 2 0 2 C0 1.34 0 0.68 0 0 Z " fill="#095A95" transform="translate(28,37)"/>
<path d="M0 0 C-0.33 1.65 -0.66 3.3 -1 5 C-2.32 5 -3.64 5 -5 5 C-5 3.68 -5 2.36 -5 1 C-3 0 -3 0 0 0 Z " fill="#266A9E" transform="translate(125,33)"/>
<path d="M0 0 C0.99 0 1.98 0 3 0 C3 2.31 3 4.62 3 7 C1.68 7.33 0.36 7.66 -1 8 C-0.67 5.36 -0.34 2.72 0 0 Z " fill="#3878A7" transform="translate(153,26)"/>
<path d="M0 0 C1.32 0.33 2.64 0.66 4 1 C4 1.66 4 2.32 4 3 C4.66 3.33 5.32 3.66 6 4 C5 5 5 5 2.4375 5.0625 C1.2309375 5.0315625 1.2309375 5.0315625 0 5 C0 3.35 0 1.7 0 0 Z " fill="#B4CBDC" transform="translate(159,14)"/>
<path d="M0 0 C1.65 0 3.3 0 5 0 C5.33 0.66 5.66 1.32 6 2 C5.34 2 4.68 2 4 2 C4 3.32 4 4.64 4 6 C3.01 6 2.02 6 1 6 C0.67 4.02 0.34 2.04 0 0 Z " fill="#C6D5E3" transform="translate(131,13)"/>
<path d="M0 0 C0 1.65 0 3.3 0 5 C-0.99 5 -1.98 5 -3 5 C-3 4.01 -3 3.02 -3 2 C-4.32 2 -5.64 2 -7 2 C-7 1.34 -7 0.68 -7 0 C-4.3333581 -1.33332095 -2.83319697 -0.67102033 0 0 Z " fill="#7CA4C3" transform="translate(166,8)"/>
<path d="M0 0 C1.99097846 2.98646769 2.94124926 5.59687262 4 9 C2.68 9 1.36 9 0 9 C0 6.03 0 3.06 0 0 Z " fill="#FCFDFC" transform="translate(120,51)"/>
<path d="M0 0 C1.32 0 2.64 0 4 0 C3.67 1.65 3.34 3.3 3 5 C2.01 5.33 1.02 5.66 0 6 C0 4.02 0 2.04 0 0 Z " fill="#578BB3" transform="translate(123,50)"/>
<path d="M0 0 C2.31 0 4.62 0 7 0 C7.625 1.875 7.625 1.875 8 4 C7.34 4.66 6.68 5.32 6 6 C5.566875 5.38125 5.13375 4.7625 4.6875 4.125 C3.00259517 1.7802755 3.00259517 1.7802755 0 0 Z " fill="#F3F6F8" transform="translate(121,30)"/>
<path d="M0 0 C1.98 0.495 1.98 0.495 4 1 C3.67 2.32 3.34 3.64 3 5 C1.68 4.67 0.36 4.34 -1 4 C-0.67 2.68 -0.34 1.36 0 0 Z " fill="#5F8FB5" transform="translate(122,18)"/>
<path d="M0 0 C1.32 0.33 2.64 0.66 4 1 C4 1.99 4 2.98 4 4 C2.68 4 1.36 4 0 4 C-0.33 5.32 -0.66 6.64 -1 8 C-1.33 6.35 -1.66 4.7 -2 3 C-1.34 3 -0.68 3 0 3 C0 2.01 0 1.02 0 0 Z " fill="#8FAFC9" transform="translate(155,9)"/>
<path d="M0 0 C0.66 1.32 1.32 2.64 2 4 C2.99 4 3.98 4 5 4 C5 4.99 5 5.98 5 7 C3.02 7 1.04 7 -1 7 C-0.67 4.69 -0.34 2.38 0 0 Z " fill="#CCD8E4" transform="translate(95,34)"/>
<path d="M0 0 C1.32 0 2.64 0 4 0 C4.66 1.98 5.32 3.96 6 6 C4.125 5.8125 4.125 5.8125 2 5 C0.75 2.4375 0.75 2.4375 0 0 Z " fill="#C8D7E3" transform="translate(27,60)"/>
<path d="M0 0 C0.33 0.99 0.66 1.98 1 3 C2.32 3.33 3.64 3.66 5 4 C1.7 4.33 -1.6 4.66 -5 5 C-4.01 4.67 -3.02 4.34 -2 4 C-2 3.01 -2 2.02 -2 1 C-1.34 0.67 -0.68 0.34 0 0 Z " fill="#79A0C1" transform="translate(155,33)"/>
<path d="M0 0 C0.66 0 1.32 0 2 0 C1.67 2.31 1.34 4.62 1 7 C1.66 7.33 2.32 7.66 3 8 C2.01 8 1.02 8 0 8 C0 6.68 0 5.36 0 4 C-1.32 3.67 -2.64 3.34 -4 3 C-3.01 2.67 -2.02 2.34 -1 2 C-0.67 1.34 -0.34 0.68 0 0 Z " fill="#739DBD" transform="translate(92,40)"/>
<path d="M0 0 C2.60018816 3.90028225 2.15085514 7.47434569 2 12 C-0.36889021 7.26221957 -1.04875255 5.36029082 0 0 Z " fill="#7EA4C2" transform="translate(132,43)"/>
<path d="M0 0 C2.97 0.495 2.97 0.495 6 1 C6 2.65 6 4.3 6 6 C5.67 5.01 5.34 4.02 5 3 C3.68 3 2.36 3 1 3 C0.67 2.01 0.34 1.02 0 0 Z " fill="#729DBF" transform="translate(134,40)"/>
<path d="M0 0 C2.375 0.25 2.375 0.25 5 1 C6.3125 3.0625 6.3125 3.0625 7 5 C6.01 5 5.02 5 4 5 C4 4.01 4 3.02 4 2 C2.68 2 1.36 2 0 2 C0 1.34 0 0.68 0 0 Z " fill="#4881AE" transform="translate(128,38)"/>
<path d="M0 0 C2.31 0.66 4.62 1.32 7 2 C5 4 5 4 2.375 4.125 C1.59125 4.08375 0.8075 4.0425 0 4 C0 2.68 0 1.36 0 0 Z " fill="#3C79A7" transform="translate(147,36)"/>
</svg>
